<svg width="20" height="20" viewBox="0 0 20 20" fill="none" xmlns="http://www.w3.org/2000/svg">
<path d="M19.7201 1.7759L18.3385 0.410768C17.9647 0.0369366 17.347 0.0369366 16.957 0.410768L10.0655 7.30211L3.04409 0.28074C2.67009 -0.0932544 2.05246 -0.0932544 1.66254 0.28074L0.280984 1.66229C-0.0930103 2.03612 -0.0930103 2.65376 0.280984 3.04384L7.28626 10.0491L0.411012 16.9569C0.0371807 17.3307 0.0371807 17.9484 0.411012 18.3384L1.79256 19.72C2.1664 20.0938 2.78403 20.0938 3.17412 19.72L10.0655 12.8285L16.957 19.72C17.3308 20.0938 17.9484 20.0938 18.3385 19.72L19.7201 18.3384C20.0939 17.9646 20.0939 17.347 19.7201 16.9569L12.8123 10.0654L19.7038 3.17404C20.0939 2.78362 20.0939 2.16599 19.7201 1.7759Z" fill="white"/>
</svg>
