<svg width="9" height="10" viewBox="0 0 9 10" fill="none" xmlns="http://www.w3.org/2000/svg">
<path d="M5 4.99999C5 5.18957 4.9412 5.36191 4.82359 5.49978L1.0015 9.80822C0.766297 10.0667 0.398791 10.0667 0.163585 9.79099C-0.0569198 9.51525 -0.0569189 9.08439 0.178287 8.80865L3.55937 4.99999L0.178287 1.19131C-0.0569189 0.932808 -0.0569198 0.484738 0.163585 0.208999C0.384091 -0.0667419 0.766297 -0.0667171 1.0015 0.19179L4.82359 4.50021C4.9412 4.63808 5 4.81042 5 4.99999Z" fill="#1D1D1B"/>
<path d="M9 4.99999C9 5.18957 8.9412 5.36191 8.82359 5.49978L5.0015 9.80822C4.7663 10.0667 4.39879 10.0667 4.16359 9.79099C3.94308 9.51525 3.94308 9.08439 4.17829 8.80865L7.55937 4.99999L4.17829 1.19131C3.94308 0.932807 3.94308 0.484739 4.16359 0.208999C4.38409 -0.0667416 4.7663 -0.0667169 5.0015 0.19179L8.82359 4.50021C8.9412 4.63808 9 4.81042 9 4.99999Z" fill="#1D1D1B"/>
</svg>
