<svg width="15" height="27" viewBox="0 0 15 27" fill="none" xmlns="http://www.w3.org/2000/svg">
<path d="M5.83333 16.7136V24.9766L6.98021 26.7179C7.2276 27.0933 7.77292 27.0933 8.02031 26.7179L9.16667 24.9766V16.7136C8.62552 16.8149 8.06979 16.875 7.5 16.875C6.93021 16.875 6.37448 16.8149 5.83333 16.7136ZM7.5 0C3.35781 0 0 3.39979 0 7.59375C0 11.7877 3.35781 15.1875 7.5 15.1875C11.6422 15.1875 15 11.7877 15 7.59375C15 3.39979 11.6422 0 7.5 0ZM7.5 4.00781C5.54688 4.00781 3.95833 5.61621 3.95833 7.59375C3.95833 7.94285 3.67812 8.22656 3.33333 8.22656C2.98854 8.22656 2.70833 7.94285 2.70833 7.59375C2.70833 4.91854 4.85833 2.74219 7.5 2.74219C7.84479 2.74219 8.125 3.0259 8.125 3.375C8.125 3.7241 7.84479 4.00781 7.5 4.00781Z" fill="#078877"/>
</svg>
