<svg width="22" height="24" viewBox="0 0 22 24" fill="none" xmlns="http://www.w3.org/2000/svg">
<path d="M3.22222 23.1H3.32222V23V21.8422C3.32584 18.6976 5.77014 16.1564 8.7779 16.1526H13.2221C16.2299 16.1564 18.6742 18.6976 18.6778 21.8422V23V23.1H18.7778H21H21.1V23V21.8421V21.842C21.095 17.3165 17.5748 13.642 13.2223 13.6368H13.2222H8.77778H8.77766C4.42517 13.642 0.904955 17.3165 0.9 21.842V21.8421V23V23.1H1H3.22222ZM11 12.6789H11.0001C14.1258 12.675 16.6518 10.0367 16.6556 6.78959V6.78947C16.6556 3.54073 14.1273 0.9 11 0.9C7.87268 0.9 5.34444 3.54073 5.34444 6.78947C5.34444 10.0382 7.87268 12.6789 11 12.6789ZM7.76667 6.78947C7.76667 4.92231 9.21813 3.41579 11 3.41579C12.7819 3.41579 14.2333 4.92231 14.2333 6.78947C14.2333 8.65663 12.7819 10.1632 11 10.1632C9.21813 10.1632 7.76667 8.65664 7.76667 6.78947Z" fill="#078877" stroke="#078877" stroke-width="0.2"/>
</svg>
