<svg width="16" height="16" viewBox="0 0 16 16" fill="none" xmlns="http://www.w3.org/2000/svg">
<g clip-path="url(#clip0)">
<path d="M15.5434 11.3067L12.0434 9.8067C11.8939 9.74298 11.7277 9.72955 11.5699 9.76844C11.4121 9.80733 11.2712 9.89643 11.1684 10.0223L9.61844 11.9161C7.18586 10.7691 5.22819 8.81147 4.08125 6.37889L5.975 4.82889C6.10115 4.72629 6.19044 4.58538 6.22934 4.4275C6.26825 4.26961 6.25466 4.10335 6.19063 3.95389L4.69063 0.453887C4.62035 0.292764 4.49605 0.161213 4.33917 0.0819174C4.18229 0.00262153 4.00266 -0.019449 3.83125 0.0195116L0.58125 0.769512C0.41599 0.807673 0.268545 0.900724 0.16298 1.03348C0.0574141 1.16623 -3.80691e-05 1.33084 1.89256e-08 1.50045C1.89256e-08 9.51607 6.49687 16.0004 14.5 16.0004C14.6697 16.0006 14.8343 15.9431 14.9672 15.8376C15.1 15.732 15.1931 15.5845 15.2312 15.4192L15.9812 12.1692C16.02 11.997 15.9974 11.8166 15.9175 11.6592C15.8376 11.5018 15.7053 11.3771 15.5434 11.3067Z" fill="#078877"/>
</g>
<defs>
<clipPath id="clip0">
<rect width="16" height="16" fill="white"/>
</clipPath>
</defs>
</svg>
