<svg width="24" height="24" viewBox="0 0 24 24" fill="none" xmlns="http://www.w3.org/2000/svg">
<path d="M21.1254 23L13.5544 15.4281C10.1864 17.8224 5.54538 17.2367 2.87787 14.0808C0.210353 10.9248 0.406221 6.25137 3.32846 3.32964C6.24992 0.406639 10.9241 0.209936 14.0808 2.87715C17.2376 5.54436 17.8236 10.1855 15.4289 13.5536L23 21.1256L21.1268 22.9987L21.1254 23ZM8.94814 3.6502C6.43598 3.64964 4.26864 5.41295 3.75831 7.87259C3.24799 10.3322 4.53494 12.8122 6.84 13.8109C9.14506 14.8097 11.8347 14.0528 13.2805 11.9985C14.7263 9.94419 14.5308 7.1571 12.8125 5.32463L13.614 6.11945L12.7105 5.21866L12.6946 5.20276C11.7034 4.2055 10.3542 3.64641 8.94814 3.6502Z" fill="#9F844D"/>
<path d="M3.25775 3.25893C0.29875 6.21741 0.100417 10.9496 2.80149 14.1453C5.48434 17.3194 10.1386 17.9259 13.5431 15.5582L21.0547 23.0707L21.1254 23.1414L21.1961 23.0708L21.1974 23.0694L21.1975 23.0694L23.0707 21.1963L23.1414 21.1256L23.0707 21.0549L15.5591 13.5424C17.9271 10.1378 17.3203 5.48331 14.1454 2.80076C10.9489 0.0999959 6.21597 0.299149 3.25775 3.25893ZM3.25775 3.25893L3.32846 3.32964M3.25775 3.25893L3.32846 3.32964M3.32846 3.32964C6.24992 0.406639 10.9241 0.209936 14.0808 2.87715C17.2376 5.54436 17.8236 10.1855 15.4289 13.5536L13.5544 15.4281C10.1864 17.8224 5.54538 17.2367 2.87787 14.0808C0.210353 10.9248 0.406221 6.25137 3.32846 3.32964ZM8.94812 3.7502L8.94841 3.7502C10.3278 3.74648 11.6513 4.29495 12.6237 5.27325L12.6239 5.27347L12.6398 5.28937L12.6399 5.28947L12.7417 5.39096L12.7396 5.39303C14.4254 7.19092 14.6172 9.92541 13.1987 11.9409C11.7802 13.9565 9.14132 14.6991 6.87976 13.7192C4.6182 12.7392 3.35553 10.3061 3.85623 7.8929C4.35692 5.47969 6.48336 3.74965 8.94812 3.7502Z" stroke="#078877" stroke-opacity="0.09" stroke-width="0.2"/>
</svg>
